<?xml version="1.0" encoding="utf-8"?>
<!-- Generator: Adobe Illustrator 21.1.0, SVG Export Plug-In . SVG Version: 6.00 Build 0)  -->
<svg version="1.1" id="Layer_1" xmlns="http://www.w3.org/2000/svg" xmlns:xlink="http://www.w3.org/1999/xlink" x="0px" y="0px"
	 viewBox="0 0 1080 1080" style="enable-background:new 0 0 1080 1080;" xml:space="preserve">
<style type="text/css">
	.st0{filter:url(#Adobe_OpacityMaskFilter);}
	.st1{fill:#FFFFFF;}
	.st2{mask:url(#mask-2_2_);fill:#FFFFFF;}
	.st3{filter:url(#Adobe_OpacityMaskFilter_1_);}
	.st4{mask:url(#mask-4_2_);fill:#FFFFFF;}
</style>
<g>
	<title>Page 1</title>
	<desc>Created with Sketch.</desc>
	<g id="Symbols_1_">
		<g id="Footer_1_" transform="translate(-453.000000, -52.000000)">
			<g id="Page-1_1_" transform="translate(453.000000, 52.000000)">
				<g id="Group-3_1_">
					<g id="Clip-2_1_">
					</g>
					<defs>
						<filter id="Adobe_OpacityMaskFilter" filterUnits="userSpaceOnUse" x="182" y="14.9" width="699.4" height="1050.2">
							<feColorMatrix  type="matrix" values="1 0 0 0 0  0 1 0 0 0  0 0 1 0 0  0 0 0 1 0"/>
						</filter>
					</defs>
					<mask maskUnits="userSpaceOnUse" x="182" y="14.9" width="699.4" height="1050.2" id="mask-2_2_">
						<g class="st0">
							<polygon id="path-1_2_" class="st1" points="881.4,14.9 182,14.9 182,1065.1 881.4,1065.1 							"/>
						</g>
					</mask>
					<path id="Fill-1_1_" class="st2" d="M290.4,466.5h0.3c0,86.2,0,172.4,0,258.5c0,19.3,3.7,23.4,22.2,23.5
						c28.5,0.2,57.1,0.1,85.6,0.1c24.9,0,27.8-3,27.8-28.6c0-167.2,0.1-334.4-0.1-501.6c0-10.8-1-21.7-2.8-32.3
						c-6.6-36.8-30.2-59-62.8-59.7c-37-0.9-59.2,15.8-66.7,51.1c-2.2,10.5-3.4,21.5-3.4,32.2C290.3,295.3,290.4,380.9,290.4,466.5
						 M533.8,256.8C624.4,140.5,742.2,68.2,879.1,20.1c0,33.7,1.5,65.4-1,96.8c-0.7,8.2-12.6,18.1-21.6,22.6
						c-69.3,35.2-131.5,79.9-184.1,137.9C603.5,353.3,566,441.7,568,546.5c1.9,102.2,42.3,187.2,109.2,260.7
						c52,57.1,113.4,101.3,182.2,134.7c15.9,7.7,22.7,17.5,22,35.5c-1.1,27.2-0.3,54.5-0.3,84.2C743,1013,624.6,940,534.3,816.3
						c0,10.9,0,16.8,0,22.8c0,67.3,0.1,134.7,0,202c0,19.7-4.2,23.8-23.7,23.9c-20.7,0.1-41.4,0.1-62.1,0c-19.3-0.1-22-3-22-23.1
						c-0.1-54.2,0-108.4,0-162.6c0-23-3.8-26.9-26.2-27c-29.1-0.1-58.2-0.2-87.3,0c-18.6,0.1-22.1,4.1-22.1,23.5
						c0,55.3,0.1,110.7,0,166c0,19.3-3.7,23-22.4,23.2c-21.8,0.1-43.6-0.2-65.5,0.1c-14.9,0.2-21-6.7-20.9-21.9
						c0.5-135.8,0.1-271.6,1.1-407.4c1.1-142.6,3.5-285.1,5.7-427.7c0.6-41.4,7.8-81.4,28.6-118c35.4-62,108.4-80.4,163.8-74
						C483.9,27.9,529.2,105,533.6,193.6C534.7,214.6,533.8,235.8,533.8,256.8"/>
				</g>
				<g id="Group-6_1_" transform="translate(59.000000, 28.000000)">
					<g id="Clip-5_1_">
					</g>
					<defs>
						<filter id="Adobe_OpacityMaskFilter_1_" filterUnits="userSpaceOnUse" x="608.6" y="216.9" width="230.4" height="600.7">
							<feColorMatrix  type="matrix" values="1 0 0 0 0  0 1 0 0 0  0 0 1 0 0  0 0 0 1 0"/>
						</filter>
					</defs>
					<mask maskUnits="userSpaceOnUse" x="608.6" y="216.9" width="230.4" height="600.7" id="mask-4_2_">
						<g class="st3">
							<polygon id="path-3_2_" class="st1" points="839,216.9 839,817.6 608.6,817.6 608.6,216.9 							"/>
						</g>
					</mask>
					<path id="Fill-4_1_" class="st4" d="M775,715.9c0-59.3,0.5-115.6-0.3-171.9c-0.2-15.1,4.2-19.9,19.3-19.7c45,0.5,45,0,45,45.2
						c0,76.5,0,153,0,229.5v18.7c-103.3-12.2-226.7-163.3-230.3-284.2C604.1,374.9,709,259.1,834.6,216.9c0,17.7,1.3,34.8-0.7,51.5
						c-0.7,6.2-8.3,13.1-14.5,16.8C762,319.5,713.9,363.5,689.8,427c-36.1,95.1-16.8,181.5,50.1,257.1c8.3,9.4,17.8,17.8,26.9,26.5
						C768.3,712.1,770.3,713,775,715.9"/>
				</g>
			</g>
		</g>
	</g>
</g>
</svg>
